<?xml version="1.0" encoding="UTF-8"?>
<svg version="1.1" xmlns="http://www.w3.org/2000/svg" width="4096" height="4096">
<path d="M0 0 C1351.68 0 2703.36 0 4096 0 C4096 1351.68 4096 2703.36 4096 4096 C2744.32 4096 1392.64 4096 0 4096 C0 2744.32 0 1392.64 0 0 Z " fill="#09060A" transform="translate(0,0)"/>
<path d="M0 0 C2.65087197 -0.0037922 5.30169978 -0.00914995 7.95256042 -0.01637268 C14.36487595 -0.03019552 20.77699238 -0.02282413 27.18929817 -0.0076971 C34.71384622 0.00935875 42.2383473 0.00592696 49.76290874 0.00220882 C63.24350857 -0.003653 76.72401474 0.01041902 90.20458984 0.03515625 C103.16133155 0.05892834 116.11794746 0.06621464 129.07470703 0.05566406 C143.27718027 0.0441193 157.4795955 0.04249962 171.68206823 0.05676216 C173.21328123 0.0582874 174.74449423 0.05980775 176.27570724 0.06132317 C177.02843043 0.06208098 177.78115361 0.06283879 178.55668659 0.06361957 C183.74471577 0.06827065 188.93271796 0.06651974 194.12074661 0.06225777 C240.25263094 0.03036547 286.21369445 1.36408141 332.09521484 6.50170898 C333.27647949 6.63125977 334.45774414 6.76081055 335.67480469 6.89428711 C366.58311371 10.37667653 397.21954153 16.47817403 427.19628906 24.74023438 C430.32328687 25.56161775 433.46372998 26.27989361 436.61865234 26.98608398 C442.66852796 28.35872595 448.55634286 30.07398985 454.47021484 31.93920898 C460.8804493 33.93150219 467.27399187 35.85852318 473.78271484 37.50170898 C489.20016743 41.52661917 504.01817192 47.53204292 518.74682617 53.54638672 C521.23030565 54.5566638 523.71864845 55.55411052 526.20849609 56.54858398 C556.84776033 68.78947379 586.16473071 82.65469253 615.09521484 98.50170898 C616.02027832 99.00718262 616.9453418 99.51265625 617.8984375 100.03344727 C632.09266369 107.83221127 645.63148194 116.54237178 659.10400391 125.51098633 C661.78115187 127.29269254 664.46397305 129.065314 667.14990234 130.83374023 C682.25965406 140.80492697 696.98398758 151.15597599 711.09521484 162.50170898 C711.99884766 163.22229492 712.90248047 163.94288086 713.83349609 164.68530273 C715.46998269 165.9909289 717.10421579 167.29938622 718.73583984 168.61108398 C720.34431465 169.89999426 721.95919649 171.18093984 723.57958984 172.45483398 C728.75529496 176.53753305 733.68916903 180.79881884 738.55615234 185.24389648 C741.02832751 187.44223071 743.56795775 189.50648658 746.15771484 191.56420898 C759.69005646 202.58848176 771.87714508 215.18829988 784.22021484 227.50170898 C784.85481628 228.13363159 785.48941772 228.7655542 786.14324951 229.41662598 C798.64967216 241.88300153 798.64967216 241.88300153 803.70996094 247.90209961 C805.25921466 249.69108628 806.90593884 251.34505112 808.59521484 253.00170898 C811.63456943 255.99378473 814.44703718 259.12504917 817.22802734 262.35717773 C819.22675129 264.65278327 821.28466713 266.88650498 823.34521484 269.12670898 C827.41506646 273.63113797 831.16027344 278.32842266 834.87207031 283.1262207 C837.9616833 287.105608 841.16919537 290.9470732 844.47021484 294.75170898 C850.61047632 301.88983179 856.03831335 309.51605411 861.46777344 317.20092773 C863.06071972 319.4529418 864.66443502 321.6968938 866.27099609 323.93920898 C872.07884408 332.06946412 877.68567412 340.29082108 882.99755859 348.75366211 C884.10802917 350.52211614 885.22622894 352.28550825 886.34521484 354.04858398 C901.3823665 377.83154617 915.82980634 401.90934814 927.70849609 427.43920898 C929.41982869 431.11152655 931.21086889 434.73458782 933.04052734 438.34936523 C936.11262713 444.46230158 938.91697545 450.67186912 941.65771484 456.93920898 C942.11339844 457.96852539 942.56908203 458.9978418 943.03857422 460.05834961 C946.28777162 467.45801539 949.22988432 474.94653057 952.09521484 482.50170898 C952.9499021 484.70434152 953.80667861 486.9061645 954.66552734 489.10717773 C955.51708984 491.30118815 956.36865234 493.49519857 957.22021484 495.68920898 C957.64947266 496.7868457 958.07873047 497.88448242 958.52099609 499.01538086 C960.73303596 504.72924999 962.77462403 510.41722785 964.42724609 516.3190918 C965.13749178 518.63985074 966.01857523 520.83259513 966.97021484 523.06420898 C969.71720227 529.72644285 971.57120899 536.66166747 973.54443359 543.58227539 C974.22622112 545.95825657 974.93847607 548.32432061 975.65771484 550.68920898 C977.53461284 556.94207911 979.34068422 563.21343977 981.09521484 569.50170898 C981.35351074 570.42580566 981.61180664 571.34990234 981.87792969 572.30200195 C987.21997457 591.5107614 991.73071404 610.76982533 995.34521484 630.37670898 C995.50852295 631.26197266 995.67183105 632.14723633 995.84008789 633.05932617 C996.55230972 637.03744747 997.17443512 640.9879205 997.57958984 645.00952148 C997.90502068 648.18770978 998.41341079 651.26438648 999.06396484 654.39233398 C1000.15747264 659.65332149 1000.92579936 664.9214313 1001.59521484 670.25170898 C1001.7226709 671.2572583 1001.85012695 672.26280762 1001.98144531 673.29882812 C1003.20647106 683.49373027 1003.87136636 693.71509568 1004.44873047 703.96362305 C1004.52027344 705.19177734 1004.59181641 706.41993164 1004.66552734 707.68530273 C1004.72498535 708.78414795 1004.78444336 709.88299316 1004.84570312 711.01513672 C1004.82423092 713.44171654 1004.82423092 713.44171654 1006.09521484 714.50170898 C1007.72071323 729.37200907 1007.29562897 744.50641299 1007.28271484 759.43920898 C1007.2821106 760.7271637 1007.28150635 762.01511841 1007.28088379 763.34210205 C1007.23221344 801.59403091 1005.09933888 839.77313117 998.01708984 877.43139648 C997.25137859 881.51570649 996.65131971 885.60104513 996.10571289 889.71972656 C994.53224297 901.44522915 991.72078881 912.80034784 988.86474609 924.27124023 C987.23962119 930.82135532 985.79437357 937.39765763 984.40771484 944.00170898 C982.95915744 950.82318168 981.35362951 957.48178978 979.17724609 964.11499023 C978.06065336 967.60988517 977.06760778 971.12465309 976.08496094 974.65893555 C972.78117376 986.51767792 968.96241996 998.16995309 964.99853516 1009.82250977 C964.19744509 1012.19849961 963.41659132 1014.57928728 962.64990234 1016.96655273 C962.43599854 1017.62800293 962.22209473 1018.28945312 962.00170898 1018.97094727 C961.46294248 1020.64282851 960.92918224 1022.31632098 960.39599609 1023.98999023 C959.32896225 1026.87066119 958.16555434 1029.59170956 956.88037109 1032.37670898 C953.41782657 1039.88069719 950.3389025 1047.53785956 947.22021484 1055.18920898 C934.52341723 1086.33223177 934.52341723 1086.33223177 928.40771484 1097.56420898 C927.54363821 1099.17576194 926.68039447 1100.78776168 925.81787109 1102.40014648 C925.37330566 1103.22869141 924.92874023 1104.05723633 924.47070312 1104.91088867 C923.04930854 1107.58817645 921.66015339 1110.28011741 920.27880859 1112.97827148 C907.19579718 1138.49355135 892.54626172 1163.02275685 876.09521484 1186.50170898 C875.6235791 1187.17814453 875.15194336 1187.85458008 874.66601562 1188.55151367 C861.17798177 1207.89060454 847.1608849 1226.77520905 832.15771484 1244.96655273 C829.63377683 1248.06889321 827.20363818 1251.23648001 824.79833984 1254.43139648 C822.71707693 1256.96137204 820.4237098 1259.1965992 818.09521484 1261.50170898 C815.80573173 1263.90093711 813.54549987 1266.32731772 811.28271484 1268.75170898 C810.62311768 1269.45569824 809.96352051 1270.1596875 809.28393555 1270.88500977 C806.00320825 1274.38657391 802.72957433 1277.89430814 799.47021484 1281.41577148 C791.02814817 1290.50340131 782.35578452 1299.3475674 773.59521484 1308.12670898 C772.75414688 1308.97165924 772.75414688 1308.97165924 771.89608765 1309.8336792 C765.80823457 1315.94373239 759.65954002 1321.89951264 753.09521484 1327.50170898 C751.31951263 1329.12138715 749.54813177 1330.74582616 747.78271484 1332.37670898 C738.15419108 1341.13708716 727.87726309 1349.04620187 717.59130859 1357.00952148 C714.22868857 1359.615 710.88792967 1362.24595147 707.55786133 1364.89282227 C700.24866978 1370.69224638 692.74591151 1376.16289858 685.09521484 1381.50170898 C684.51674805 1381.9079248 683.93828125 1382.31414062 683.34228516 1382.73266602 C624.12582172 1424.26257956 560.57546777 1456.46920664 492.47021484 1480.56420898 C491.32235504 1480.97233322 491.32235504 1480.97233322 490.15130615 1481.38870239 C481.30419923 1484.5237703 472.46893926 1487.30097617 463.37670898 1489.63305664 C459.9495991 1490.54025528 456.62799056 1491.62192669 453.27929688 1492.77758789 C416.29547177 1505.0393837 375.70898795 1511.09374293 337.10205078 1515.18139648 C334.35091585 1515.47446964 331.60197081 1515.78262267 328.85302734 1516.09545898 C306.65968105 1518.55411715 284.37655402 1518.65675614 262.07083797 1518.66175175 C258.42257585 1518.6636405 254.77432402 1518.67120472 251.12606812 1518.67788696 C243.19664876 1518.69130896 235.26723456 1518.6974671 227.33780575 1518.70189762 C222.37119125 1518.70468315 217.40457862 1518.70892393 212.43796539 1518.71340179 C198.63616942 1518.72556472 184.83437491 1518.73587538 171.0325737 1518.73927689 C170.15422924 1518.73949645 169.27588479 1518.73971602 168.37092383 1518.73994224 C167.49075313 1518.74016052 166.61058242 1518.74037879 165.70373988 1518.74060369 C163.92082008 1518.74104712 162.13790027 1518.74149368 160.35498047 1518.74194336 C159.02845934 1518.7422755 159.02845934 1518.7422755 157.67513981 1518.74261436 C143.32799826 1518.74656729 128.98090732 1518.7640498 114.63378534 1518.78730288 C99.83880462 1518.81108533 85.04384928 1518.82348157 70.24884915 1518.8246448 C61.9676773 1518.82555677 53.6865718 1518.83118902 45.4054184 1518.84946442 C38.36147079 1518.8649578 31.31761015 1518.86993126 24.27364871 1518.86172631 C20.69026709 1518.85785456 17.10706015 1518.85857676 13.52370071 1518.87278366 C-5.27643997 1518.94303593 -23.96205495 1518.78592986 -41.90478516 1512.50170898 C-43.60441406 1511.99704102 -43.60441406 1511.99704102 -45.33837891 1511.48217773 C-76.09242615 1502.07024311 -99.84152974 1478.53118907 -114.79101562 1450.6574707 C-131.50984878 1418.29725659 -131.07012442 1381.50528248 -131.03325271 1345.98181662 C-131.03068448 1342.42099598 -131.03398841 1338.86017952 -131.03649604 1335.2993595 C-131.04008744 1329.07375198 -131.04001071 1322.84815315 -131.03744888 1316.62254524 C-131.03364801 1307.35991694 -131.03561019 1298.0972959 -131.03865719 1288.83466764 C-131.04391573 1272.2622346 -131.04346813 1255.68980542 -131.04057828 1239.11737201 C-131.03805302 1224.56066121 -131.03741041 1210.00395181 -131.03860092 1195.44724083 C-131.03867731 1194.47794729 -131.03875369 1193.50865376 -131.03883239 1192.50998769 C-131.03914382 1188.57341196 -131.03946223 1184.63683622 -131.03979216 1180.70026049 C-131.04285181 1143.74886177 -131.04008038 1106.79746547 -131.03469526 1069.84606712 C-131.02998156 1037.25593796 -131.03034714 1004.66581272 -131.03515625 972.07568359 C-131.0405627 935.31599085 -131.04260307 898.55630028 -131.03954399 861.7966072 C-131.0392234 857.84124386 -131.03891055 853.88588053 -131.03860092 849.9305172 C-131.03852184 848.9568927 -131.03844277 847.98326821 -131.03836129 846.98013995 C-131.03731494 833.46315887 -131.03820323 819.94617923 -131.04058886 806.42919834 C-131.0651619 664.57239328 -131.0651619 664.57239328 -130.54870519 603.75621985 C-130.52200395 600.50132424 -130.49838001 597.24641995 -130.47559953 593.99149477 C-130.44012261 589.03144585 -130.39491408 584.07158221 -130.34154668 579.11169423 C-130.32384724 577.36017659 -130.30893627 575.60862759 -130.29738268 573.85705863 C-130.18550209 557.71867406 -129.57274641 541.29722051 -125.15478516 525.68920898 C-124.89093018 524.72764893 -124.6270752 523.76608887 -124.35522461 522.77539062 C-119.03745802 503.911147 -110.56237933 489.38587805 -97.90478516 474.50170898 C-97.03273438 473.32801758 -97.03273438 473.32801758 -96.14306641 472.13061523 C-79.99035257 453.15892865 -52.44651901 440.18740816 -27.90478516 437.50170898 C-23.98698643 437.36601625 -20.07458118 437.36226256 -16.15478516 437.37670898 C-15.12095703 437.3728418 -14.08712891 437.36897461 -13.02197266 437.36499023 C-3.35467039 437.37716568 5.66569244 438.05604474 14.97021484 440.75170898 C15.7476001 440.9735083 16.52498535 441.19530762 17.32592773 441.42382812 C23.8001739 443.32060872 29.99849654 445.59809207 36.09521484 448.50170898 C36.98080078 448.91807617 37.86638672 449.33444336 38.77880859 449.76342773 C64.47838844 462.78106687 83.71650683 486.96579459 92.70849609 514.00170898 C97.01997119 527.58003662 99.24625039 540.76264952 99.23388004 554.99798489 C99.23672226 556.26390019 99.23956448 557.5298155 99.24249282 558.83409187 C99.25025135 562.351826 99.25183414 565.86954001 99.25242024 569.38728165 C99.25415076 573.2127349 99.26163695 577.03817756 99.26839679 580.86362463 C99.27945193 587.56935837 99.28682485 594.27508835 99.29179573 600.98082924 C99.2992039 610.95203581 99.31228757 620.92322927 99.32654148 630.89442811 C99.35035721 647.66720907 99.36955921 664.43999236 99.38614082 681.21278191 C99.4025761 697.82233945 99.42105645 714.43189263 99.44227409 731.04144478 C99.4435917 732.07379195 99.44490931 733.10613913 99.44626684 734.16976955 C99.45296883 739.41244033 99.45970742 744.65511107 99.4664601 749.8977818 C99.51423585 787.04122531 99.55741723 824.18467288 99.59790039 861.328125 C99.63724217 897.41471655 99.67866273 933.50130473 99.72290039 969.58789062 C99.72426292 970.7000416 99.72562545 971.81219257 99.72702927 972.95804508 C99.74071453 984.12662074 99.75444207 995.29519634 99.76820061 1006.4637719 C99.79622791 1029.21588364 99.82397291 1051.96799573 99.85154724 1074.72010803 C99.85281544 1075.76623625 99.85408364 1076.81236447 99.85539027 1077.89019354 C99.94006043 1147.76069322 100.01814984 1217.63120056 100.09521484 1287.50170898 C126.92147013 1287.3942334 153.74769851 1287.28143077 180.57390499 1287.16236973 C193.03111309 1287.1072045 205.48832406 1287.05375092 217.94555664 1287.00439453 C228.80933975 1286.96134708 239.6731032 1286.9150191 250.53685576 1286.86483043 C256.28358131 1286.83839403 262.03030339 1286.81354698 267.77705193 1286.79263496 C273.19835274 1286.77285523 278.61961671 1286.74865242 284.04088402 1286.72121811 C286.01879447 1286.71195926 287.99671293 1286.70424549 289.97463608 1286.69828987 C312.18703468 1286.75321435 312.18703468 1286.75321435 334.19677734 1284.11889648 C334.95419724 1283.98412399 335.71161713 1283.8493515 336.49198914 1283.710495 C338.9036423 1283.27728906 341.31195906 1282.8283902 343.72021484 1282.37670898 C344.55982758 1282.22209198 345.39944031 1282.06747498 346.26449585 1281.90817261 C371.65957635 1277.22963524 396.52893399 1271.55874658 421.09521484 1263.50170898 C422.6614543 1262.99728454 424.2278451 1262.49332963 425.79443359 1261.98999023 C431.69101246 1260.07374026 437.40146849 1257.96645153 443.09521484 1255.50170898 C445.15348629 1254.69911257 447.21599571 1253.90729492 449.28271484 1253.12670898 C455.60725651 1250.70871544 461.87372191 1248.17376044 468.09521484 1245.50170898 C468.71058105 1245.23817627 469.32594727 1244.97464355 469.95996094 1244.703125 C477.16288218 1241.56464984 484.19327934 1238.0744161 491.22021484 1234.56420898 C491.87794891 1234.23567932 492.53568298 1233.90714966 493.21334839 1233.56866455 C534.36599382 1212.95908453 573.27360974 1187.8693806 607.09521484 1156.50170898 C608.10792188 1155.56907646 609.12096256 1154.63680614 610.13427734 1153.70483398 C612.33500588 1151.67928782 614.53088668 1149.64864649 616.72412109 1147.61499023 C618.96928143 1145.53555809 621.2275173 1143.47190983 623.49755859 1141.41967773 C630.10902953 1135.42389643 636.21871964 1129.23258825 642.09521484 1122.50170898 C643.89916221 1120.51469437 645.71627101 1118.53980041 647.53271484 1116.56420898 C649.95778561 1113.92661246 652.1063211 1111.4850496 654.09521484 1108.50170898 C654.75521484 1108.50170898 655.41521484 1108.50170898 656.09521484 1108.50170898 C656.37341064 1107.90745117 656.65160645 1107.31319336 656.93823242 1106.70092773 C658.01422417 1104.65565792 659.12607777 1103.0765498 660.60693359 1101.31420898 C661.1098291 1100.70834961 661.61272461 1100.10249023 662.13085938 1099.47827148 C662.67597168 1098.82600586 663.22108398 1098.17374023 663.78271484 1097.50170898 C678.89542597 1079.14294277 692.87595512 1059.9076298 705.09521484 1039.50170898 C705.84354494 1038.26190356 706.59225669 1037.02232844 707.34130859 1035.78295898 C709.2527722 1032.61562141 711.15168295 1029.44100151 713.04443359 1026.26245117 C714.00417851 1024.65425406 714.97119529 1023.05040239 715.93896484 1021.44702148 C728.87321066 999.75276372 739.37346734 976.17237733 748.09521484 952.50170898 C748.76423828 950.72860352 748.76423828 950.72860352 749.44677734 948.91967773 C756.28837581 930.65471663 762.87500985 912.47727776 767.37841797 893.47485352 C768.1499077 890.27485284 768.97131275 887.09013318 769.79833984 883.90405273 C774.57252101 865.23862009 777.89813501 846.46461748 780.80029297 827.43328857 C781.06753155 825.68301969 781.33894485 823.93338948 781.61083984 822.18383789 C782.56740788 815.96923803 783.39918685 809.75085516 784.09521484 803.50170898 C784.19817871 802.59130859 784.30114258 801.6809082 784.40722656 800.74291992 C788.04444748 766.92193683 786.73827149 733.12474278 782.09521484 699.50170898 C781.81849297 697.40023594 781.54238072 695.29868246 781.26708984 693.19702148 C780.608611 688.28753775 779.87184951 683.39372962 779.09521484 678.50170898 C778.79550781 676.5468457 778.79550781 676.5468457 778.48974609 674.55249023 C774.90485454 652.71724166 769.63450072 631.20669494 762.90966797 610.13989258 C761.84844974 606.70238533 760.91620448 603.23598022 759.98120117 599.76245117 C749.54611221 561.31930625 731.43552401 523.40491631 710.86572266 489.43237305 C709.07817194 486.47349841 707.31553337 483.50084173 705.55615234 480.52514648 C698.32815938 468.37683904 690.61539716 456.77949567 682.09521484 445.50170898 C681.41483154 444.59388672 681.41483154 444.59388672 680.72070312 443.66772461 C675.50229415 436.71503648 670.05613848 429.97514945 664.45458984 423.32983398 C662.32487442 420.7769963 660.26574205 418.18451243 658.22021484 415.56420898 C654.04512072 410.30511476 649.48993984 405.43445223 644.90771484 400.53295898 C642.72446601 398.19417527 640.60861048 395.81189425 638.53271484 393.37670898 C632.33124526 386.22233066 625.50342841 379.56353111 618.29833984 373.42749023 C616.020888 371.43673889 613.81961438 369.37411452 611.61816406 367.30004883 C606.0647708 362.08232733 600.35797019 357.21798123 594.31835938 352.57250977 C590.9303789 349.96212923 587.63532874 347.28541218 584.40600586 344.48120117 C562.85276903 325.77678104 538.04577382 311.15518414 513.09521484 297.50170898 C512.29051758 297.05875488 511.48582031 296.61580078 510.65673828 296.15942383 C489.54915545 284.59246843 467.62486364 274.8899264 445.04345703 266.58618164 C442.38086591 265.60678203 439.72614493 264.60857396 437.07177734 263.60717773 C414.1411455 255.11539833 389.95705679 249.66052498 366.09521484 244.50170898 C365.08168945 244.2788623 364.06816406 244.05601562 363.02392578 243.82641602 C334.16309444 237.56172838 304.54826165 235.04743555 275.09521484 233.50170898 C274.32920987 233.46120922 273.5632049 233.42070946 272.77398765 233.37898242 C257.04214469 232.56862517 241.34604341 232.34516207 225.59545898 232.328125 C223.02692558 232.32180061 220.45839324 232.31503281 217.88986206 232.30786133 C212.40855814 232.29309027 206.92725538 232.28147271 201.44594002 232.27191353 C193.50393524 232.25788443 185.56196062 232.23667894 177.61997788 232.213485 C164.70442261 232.17577433 151.78886201 232.14075904 138.87329102 232.10888672 C137.71929874 232.10603598 137.71929874 232.10603598 136.54199349 232.10312765 C125.60875694 232.07625753 114.67551591 232.05237682 103.74226987 232.02974265 C102.97081935 232.02814535 102.19936882 232.02654805 101.40454102 232.02490234 C100.63405027 232.02330888 99.86355952 232.02171541 99.06972057 232.02007366 C86.18675069 231.99323476 73.30381416 231.95881961 60.42088026 231.91824859 C52.50480136 231.89361631 44.58875805 231.87521073 36.67264705 231.86509299 C30.6043188 231.85677535 24.53606476 231.83822975 18.46776962 231.81603241 C15.99275301 231.80860132 13.51772373 231.80447855 11.042696 231.80403709 C-5.01874209 231.79886161 -20.80084276 231.59785257 -36.40478516 227.31420898 C-37.19175781 227.10135254 -37.97873047 226.88849609 -38.78955078 226.66918945 C-70.26904207 217.7609746 -95.43845967 195.77324209 -111.99853516 167.94311523 C-126.18448381 142.33282679 -131.99676145 112.05560355 -124.09619141 83.43530273 C-123.70431244 82.12252423 -123.30734016 80.81125317 -122.90478516 79.50170898 C-122.54255859 78.27581055 -122.18033203 77.04991211 -121.80712891 75.78686523 C-112.95853445 48.64117716 -91.84547008 25.93272505 -67.20556641 12.12670898 C-45.80441502 1.59075753 -23.49836187 -0.09677577 0 0 Z " fill="#FEFEFE" transform="translate(1847.90478515625,1290.498291015625)"/>
<path d="M0 0 C26.91821549 -1.4912557 52.05852793 5.45173857 72.80078125 23.18994141 C73.538125 23.84994141 74.27546875 24.50994141 75.03515625 25.18994141 C75.89625 25.93244141 76.75734375 26.67494141 77.64453125 27.43994141 C85.05508807 33.9296598 91.05030974 40.88055968 96.59765625 49.00244141 C97.07726807 49.70457764 97.55687988 50.40671387 98.05102539 51.13012695 C108.56269578 66.7369503 114.32675739 84.35486575 115.03515625 103.18994141 C115.06770508 103.93244141 115.10025391 104.67494141 115.13378906 105.43994141 C115.71572298 120.29982968 114.80810337 135.30174485 109.03515625 149.18994141 C108.54891309 151.07880907 108.09186821 152.97536931 107.66015625 154.87744141 C106.52327384 159.5437498 105.07037713 163.81094225 103.203125 168.22509766 C101.64465245 172.18122027 100.35030304 176.21006955 99.03515625 180.25244141 C97.25050059 185.72010912 95.36356271 190.98969443 92.8984375 196.19384766 C91.57167807 199.26160363 90.72881989 202.44909525 89.8125 205.65869141 C88.76130508 209.08167787 87.41344232 212.3528718 86.0625 215.66650391 C82.55820195 224.27401927 79.88771265 233.01253584 77.38720703 241.95385742 C75.95206643 247.06290419 74.43523607 252.12665114 72.78051758 257.16870117 C69.80365656 266.239693 67.42888828 275.37771142 65.30273438 284.68505859 C63.89881643 290.78825807 62.31183985 296.80920335 60.59765625 302.83056641 C58.02539661 311.93673231 55.97338743 321.10540553 54.09765625 330.37744141 C53.92940338 331.20133362 53.76115051 332.02522583 53.58779907 332.87408447 C48.05659922 360.0799943 43.96462814 387.5848663 41.03515625 415.18994141 C40.87673422 416.64814127 40.71802432 418.10630988 40.55908203 419.56445312 C39.2719363 431.42943782 38.09677876 443.30263108 37.03515625 455.18994141 C36.9713678 455.89902649 36.90757935 456.60811157 36.84185791 457.33868408 C34.89996337 479.26020728 34.85591648 501.20109866 34.84765625 523.18994141 C34.84706711 523.8849815 34.84647797 524.58002159 34.84587097 525.2961235 C34.82659691 551.81708967 35.41129719 578.21184628 37.91015625 604.62744141 C38.0907976 606.58623512 38.27113135 608.54505722 38.45117188 610.50390625 C38.96604223 616.06720316 39.49777673 621.62877938 40.03515625 627.18994141 C40.14180603 628.302211 40.14180603 628.302211 40.25061035 629.43695068 C41.83974818 645.9877969 43.96034112 662.41070149 46.51904297 678.83886719 C47.04188471 682.23362867 47.5429944 685.63101554 48.0390625 689.02978516 C49.75812225 700.70994883 51.70234033 712.23805467 54.44921875 723.72070312 C55.11860378 726.5416032 55.76538597 729.36722078 56.41015625 732.19384766 C57.67843032 737.7490977 58.96351601 743.30025369 60.25732422 748.84960938 C60.76636054 751.0356216 61.27328087 753.2221279 61.77783203 755.40917969 C66.89149453 777.5433001 73.30965557 799.14326211 80.28515625 820.75244141 C80.67867279 821.97465393 80.67867279 821.97465393 81.08013916 823.22155762 C81.8371596 825.56781728 82.59927876 827.91235336 83.36328125 830.25634766 C83.70046677 831.30185539 83.70046677 831.30185539 84.04446411 832.3684845 C85.48521168 836.76114821 87.18387586 840.9540469 89.03515625 845.18994141 C89.54223235 846.54503537 90.03427719 847.90602194 90.5 849.27587891 C90.74057129 849.97447021 90.98114258 850.67306152 91.22900391 851.39282227 C91.59711182 852.46802124 91.59711182 852.46802124 91.97265625 853.56494141 C93.7976954 858.81855163 95.67734996 863.97249089 98.04541016 869.01098633 C99.05349945 871.23032451 99.96509612 873.46933981 100.859375 875.73681641 C107.65460015 892.81683302 115.05465209 909.61238105 122.72265625 926.31494141 C123.07597015 927.0864151 123.42928406 927.85788879 123.79330444 928.65274048 C128.66433254 939.27510295 133.74713081 949.76938663 139.03515625 960.18994141 C139.6693948 961.44651096 140.30342994 962.7031832 140.93725586 963.95996094 C149.74175379 981.38696161 158.98183041 998.44337453 169.03515625 1015.18994141 C170.09834229 1016.97729392 171.16085513 1018.76504707 172.22265625 1020.55322266 C178.35370509 1030.85357827 184.6192276 1041.06472067 191.03515625 1051.18994141 C191.41768555 1051.79531738 191.80021484 1052.40069336 192.19433594 1053.02441406 C199.61126053 1064.7441666 207.39348004 1076.15270467 215.77734375 1087.20947266 C217.31524338 1089.23960659 218.84083968 1091.27910605 220.35546875 1093.32666016 C227.02644445 1103.49206909 227.02644445 1103.49206909 236.03515625 1111.18994141 C236.03011774 1110.1815978 236.02507923 1109.17325419 236.01988804 1108.13435471 C235.61926842 1027.78001189 235.22143232 947.42495838 234.90569547 638.50394598 C234.91030337 617.88218609 234.90932059 597.26043169 234.90478516 576.63867188 C234.89938906 552.02902354 234.89734037 527.41937855 234.90039742 502.8097297 C234.9007157 500.18023245 234.90103007 497.5507352 234.90134048 494.92123795 C234.90149476 493.63063185 234.90164904 492.34002575 234.90180799 491.01031037 C234.90265261 482.1458892 234.90123323 473.28147024 234.89886093 464.41704941 C234.87737506 374.63403803 234.87737506 374.63403803 235.33294764 337.62688962 C235.35540368 335.66075315 235.37222427 333.69455486 235.38890243 331.72836089 C235.51136825 318.22655471 236.05874623 305.39392962 239.03515625 292.18994141 C239.2436577 291.22558733 239.45215916 290.26123325 239.66697884 289.26765633 C240.15644236 287.05847695 240.7009883 284.87583575 241.28515625 282.68994141 C241.49277588 281.91078369 241.70039551 281.13162598 241.91430664 280.32885742 C250.17472288 250.61117675 268.73692309 225.74351671 295.55639648 210.22998047 C321.70318351 195.89955597 352.82330979 194.09187039 381.38842773 202.04052734 C410.83569083 210.78741735 433.62198508 230.99227673 448.31640625 257.85791016 C450.16481665 261.44130577 451.76087323 265.02738428 453.1484375 268.81103516 C454.04259909 271.31410517 454.04259909 271.31410517 455.4250107 274.12007153 C462.33154913 290.25314271 462.76826317 308.97977554 462.65039539 326.24075413 C462.65410594 328.45113854 462.6600119 330.66152014 462.66787788 332.87189367 C462.6830589 338.89269717 462.66748665 344.91307104 462.64648721 350.93384216 C462.63097084 356.82399014 462.63937121 362.71409522 462.64690504 368.60424835 C462.66164987 380.78062088 462.65297278 392.9568728 462.63118362 405.13323021 C462.60922801 417.45719408 462.59832819 429.78109564 462.60069466 442.10507965 C462.60083812 442.88591129 462.60098158 443.66674293 462.60112939 444.47123613 C462.60191135 448.45328926 462.60287109 452.43534233 462.60389357 456.41739541 C462.61091572 485.17788044 462.5938303 513.9383101 462.56380653 542.69877815 C462.53415934 571.1667413 462.51492411 599.63468074 462.50954247 628.10265923 C462.50937041 628.98789894 462.50919835 629.87313866 462.50902107 630.78520382 C462.507455 638.87091711 462.50601656 646.95663042 462.5047312 655.04234376 C462.50153488 675.13940478 462.49673868 695.23646525 462.49085522 715.33352566 C462.49058863 716.24853853 462.49032204 717.1635514 462.49004738 718.10629194 C462.47695073 762.57876409 462.44541744 807.0512206 462.41235352 851.52368164 C462.40089485 866.94991036 462.38951787 882.37613914 462.378479 897.80236816 C462.37779426 898.75914969 462.37710951 899.71593123 462.37640402 900.70170614 C462.34466311 945.20914146 462.32604905 989.71657948 462.31080503 1034.22402316 C462.30981471 1037.11471975 462.30881875 1040.00541634 462.30782163 1042.89611293 C462.30122252 1062.05347087 462.29484931 1081.21082889 462.28862734 1100.36818696 C462.27624595 1138.48412701 462.26253759 1176.60006656 462.2479171 1214.71600582 C462.2472209 1216.53104328 462.24652563 1218.34608074 462.24583129 1220.16111819 C462.21457984 1301.83357545 462.16789445 1383.50602125 462.11450195 1465.1784668 C462.11375244 1466.32519784 462.11375244 1466.32519784 462.11298778 1467.49509516 C462.08798727 1505.72671122 462.062105 1543.95832666 462.03515625 1582.18994141 C457.18769265 1581.39062012 453.91139497 1579.36344714 449.91015625 1576.62744141 C442.39781382 1571.62144545 434.70275016 1566.99536561 426.91015625 1562.43994141 C417.10911414 1556.7008936 407.52680809 1550.69455631 398.05419922 1544.42456055 C392.46958791 1540.73962052 386.83104837 1537.21973919 381.03515625 1533.87744141 C373.83808922 1529.72144818 366.91444738 1525.25782115 360.05419922 1520.56884766 C357.87658243 1519.08164335 355.69239416 1517.60439356 353.5078125 1516.12744141 C344.83728106 1510.24801063 336.27865282 1504.2392056 327.81201172 1498.07006836 C322.39092344 1494.13311409 316.89143953 1490.32673465 311.34765625 1486.56494141 C303.0981874 1480.95977937 295.02682912 1475.1554088 287.03515625 1469.18994141 C285.70444807 1468.20163189 284.3737184 1467.21335132 283.04296875 1466.22509766 C271.09542389 1457.33079832 259.33599864 1448.27773756 248.0715332 1438.52758789 C244.62469506 1435.5441983 241.14199824 1432.62042228 237.59765625 1429.75244141 C227.88706207 1421.86079333 218.49506267 1413.57496374 209.23046875 1405.16650391 C207.16896305 1403.31041515 205.07696107 1401.4971679 202.97265625 1399.68994141 C199.30036644 1396.49793095 195.8909878 1393.08749085 192.50390625 1389.59619141 C190.5529985 1387.69467373 188.58431221 1385.93254117 186.51586914 1384.16625977 C181.41630071 1379.71673036 176.65350803 1374.95186285 171.875 1370.16259766 C170.91685765 1369.20513116 169.95856709 1368.24781296 169.00013733 1367.29063416 C167.00424338 1365.29620394 165.01014173 1363.300004 163.01733398 1361.30249023 C160.48373762 1358.76319742 157.94567642 1356.22842238 155.40624142 1353.69497013 C153.43024922 1351.72261957 151.45667946 1349.74785878 149.48379707 1347.77239799 C148.10105026 1346.38867513 146.71631695 1345.00693826 145.33152771 1343.6252594 C140.91144169 1339.18886934 136.61662688 1334.70464199 132.54881287 1329.94171143 C129.855845 1326.82511264 126.99313421 1323.86621726 124.16015625 1320.87744141 C119.35159056 1315.7705525 114.81697929 1310.55073447 110.44140625 1305.06494141 C107.43771836 1301.47611951 104.25017849 1298.08898276 101.03515625 1294.68994141 C96.21330289 1289.58610458 91.61072363 1284.39898527 87.2265625 1278.90869141 C85.24774595 1276.45368906 83.21656576 1274.0535091 81.15942383 1271.6640625 C74.68799476 1264.13379773 68.67141421 1256.291137 62.68798828 1248.37060547 C61.07177271 1246.23825134 59.44461109 1244.11483406 57.8125 1241.99462891 C45.42713588 1225.90325953 33.46789712 1209.54063329 21.89306641 1192.85693359 C19.93475452 1190.04581676 17.96087252 1187.24611016 15.984375 1184.44775391 C8.8359881 1174.29942422 1.96999748 1164.0872636 -4.3984375 1153.43212891 C-6.93720704 1149.19471639 -9.62645543 1145.06689713 -12.33984375 1140.93994141 C-18.9031535 1130.90096996 -24.94839485 1120.56312917 -30.96484375 1110.18994141 C-31.73296387 1108.86639648 -31.73296387 1108.86639648 -32.51660156 1107.51611328 C-40.22700889 1094.19768621 -47.6846504 1080.74798264 -54.96484375 1067.18994141 C-55.43857422 1066.31241211 -55.91230469 1065.43488281 -56.40039062 1064.53076172 C-65.60942022 1047.42015735 -73.87934978 1029.88572121 -82.01568604 1012.24713135 C-82.91554208 1010.29679708 -83.81773202 1008.34755727 -84.72021484 1006.3984375 C-108.55756108 954.74035296 -127.83344007 901.07347461 -143.2265625 846.33447266 C-144.44039909 842.02013937 -145.69253141 837.72076862 -146.98901367 833.43066406 C-150.10785162 823.09705796 -152.66327341 812.62980643 -155.23291016 802.1484375 C-155.924663 799.35235312 -156.63376403 796.56147009 -157.3515625 793.77197266 C-159.59037322 785.04938725 -161.58756185 776.37526473 -163.1640625 767.50634766 C-163.90214727 763.41768349 -164.77284899 759.36251683 -165.64892578 755.30151367 C-168.06101882 744.07787794 -170.14814724 732.81507413 -172.08984375 721.50244141 C-172.21195221 720.79606537 -172.33406067 720.08968933 -172.45986938 719.36190796 C-175.83080324 699.79820368 -178.42534554 680.19216483 -180.40234375 660.43994141 C-180.55950867 658.88885178 -180.55950867 658.88885178 -180.71984863 657.306427 C-182.39238781 640.76104578 -183.86841892 624.20240085 -185.21484375 607.62744141 C-185.33906204 606.09935852 -185.33906204 606.09935852 -185.46578979 604.54040527 C-185.70249856 601.60998581 -185.93613627 598.67934417 -186.16796875 595.74853516 C-186.23442093 594.91484909 -186.30087311 594.08116302 -186.36933899 593.22221375 C-186.5775885 590.54541446 -186.77332564 587.86799141 -186.96484375 585.18994141 C-187.05301361 583.98242218 -187.14118347 582.77490295 -187.23202515 581.53079224 C-187.88983526 572.1200667 -188.11346298 562.75064217 -188.09765625 553.31494141 C-188.09833332 551.85156234 -188.09930666 550.38818338 -188.10055542 548.92480469 C-188.10201349 545.88621937 -188.09993973 542.84766383 -188.09521484 539.80908203 C-188.08951875 535.96381253 -188.09280805 532.1186129 -188.09878731 528.27334595 C-188.10244464 525.26000466 -188.10123093 522.24667924 -188.09865952 519.2333374 C-188.09800445 517.81752514 -188.0987673 516.40171131 -188.10113907 514.98590088 C-188.11264825 506.19109556 -187.80062562 497.47679869 -187.19842529 488.70782471 C-186.93814909 484.78790328 -186.79702226 480.89069633 -186.71875 476.96337891 C-186.68742069 475.58055708 -186.65566759 474.1977448 -186.62353516 472.81494141 C-186.60816711 472.12142578 -186.59279907 471.42791016 -186.57696533 470.71337891 C-186.27955154 457.83642278 -185.61376023 445.07991936 -184.26953125 432.26660156 C-183.91280701 428.66448711 -183.60718074 425.05894273 -183.30859375 421.45166016 C-179.47128157 375.31498755 -173.0440284 329.37243909 -163.55566406 284.04199219 C-162.88219276 280.79096256 -162.23306237 277.53538122 -161.58203125 274.27978516 C-158.12964902 257.27540191 -154.12680085 240.44084623 -149.83984375 223.62744141 C-149.5862207 222.62828705 -149.33259766 221.62913269 -149.07128906 220.59970093 C-146.55764129 210.72446737 -143.98211788 200.89740698 -140.85968018 191.19548035 C-139.15650855 185.88865499 -137.6334358 180.54046972 -136.12890625 175.17431641 C-132.83276166 163.49770352 -129.12319671 151.96650996 -125.33984375 140.43994141 C-124.99268311 139.3801004 -124.64552246 138.3202594 -124.2878418 137.228302 C-106.48477147 82.95917952 -106.48477147 82.95917952 -96.96484375 66.18994141 C-96.40667969 65.16255859 -95.84851563 64.13517578 -95.2734375 63.07666016 C-79.64313085 35.11618121 -55.33355682 12.34846969 -24.16796875 2.93212891 C-16.16197064 1.07708056 -8.17527784 0.52374557 0 0 Z " fill="#FEFEFE" transform="translate(1085.96484375,1530.81005859375)"/>
<path d="M0 0 C2.02017752 -0.00135721 4.0403548 -0.00313894 6.06053162 -0.00531006 C11.51960655 -0.00984838 16.97866246 -0.00810915 22.4377377 -0.00493097 C28.17569099 -0.00238628 33.91364272 -0.00475099 39.65159607 -0.00631714 C49.29247324 -0.00813372 58.93334274 -0.00574701 68.57421875 -0.00097656 C79.6769531 0.00445425 90.77966906 0.00270993 101.88240296 -0.00280297 C111.45059253 -0.00736163 121.01877662 -0.00797091 130.58696693 -0.0053643 C136.28552071 -0.00381522 141.98406589 -0.00356962 147.68261909 -0.00690079 C153.04989913 -0.00981929 158.41715581 -0.00773177 163.78443336 -0.00200653 C165.73894462 -0.00069958 167.69345788 -0.00103724 169.64796829 -0.0032692 C187.04819032 -0.0212856 204.25334057 0.7782662 221.56420898 2.53564453 C226.41415601 3.0103748 231.26829781 3.40944626 236.12670898 3.78564453 C253.96730794 5.17354224 271.6765968 6.89709111 289.39135742 9.484375 C292.66641267 9.96173407 295.94331771 10.42403194 299.22143555 10.87988281 C322.42945198 14.1099626 345.28390427 17.71343171 368.06323242 23.23681641 C375.13109273 24.90478034 382.23941762 26.38423518 389.34545898 27.87939453 C390.68842097 28.16377799 392.03135795 28.44827956 393.37426758 28.73291016 C401.16284203 30.37753435 401.16284203 30.37753435 408.97045898 31.92822266 C409.64604858 32.05916321 410.32163818 32.19010376 411.0177002 32.32501221 C412.88460466 32.68494238 414.75269178 33.0387227 416.62084961 33.39208984 C419.54715505 34.06118754 422.09135592 34.95930043 424.84545898 36.12939453 C427.12829622 36.74637757 429.42154248 37.32532163 431.72045898 37.87939453 C433.16206862 38.23403756 434.60346265 38.58955777 436.04467773 38.94580078 C436.8198877 39.13674316 437.59509766 39.32768555 438.39379883 39.52441406 C487.10996422 51.54579007 538.46012434 66.77353066 583.89233398 88.32470703 C590.66248967 91.47145156 597.58799508 94.28178743 604.47045898 97.17138672 C616.30067326 102.14191634 627.87389589 107.50973281 639.40795898 113.12939453 C640.18312866 113.50688843 640.95829834 113.88438232 641.75695801 114.27331543 C646.42271164 116.54630103 651.08623405 118.82381567 655.74835205 121.10424805 C657.64768676 122.03271587 659.54789409 122.95936384 661.44848633 123.88525391 C673.36879237 129.70356306 685.04306588 135.81446216 696.55102539 142.41333008 C702.46283295 145.80160664 708.42146164 149.05575223 714.47045898 152.19189453 C734.60918231 162.72367299 753.46558262 174.67956068 772.27633667 187.39762878 C776.98789347 190.57495217 781.75808837 193.64806541 786.56567383 196.6784668 C789.46722688 198.52510738 792.28252073 200.46284644 795.09545898 202.44189453 C799.71887694 205.67675432 804.38810448 208.83064093 809.09545898 211.94189453 C823.03869794 221.20205903 836.48218266 231.0400178 849.75561523 241.23486328 C853.59331267 244.18101081 857.45996669 247.08345977 861.34838867 249.9621582 C868.05564613 254.9319244 874.51254087 260.10445957 880.83764648 265.55126953 C883.61904887 267.93532872 886.43716815 270.2603935 889.28295898 272.56689453 C899.38755623 280.80081561 909.20070007 289.36288353 918.84545898 298.12939453 C920.51134397 299.63026261 922.17802007 301.13025303 923.84545898 302.62939453 C924.67432617 303.37576172 925.50319336 304.12212891 926.35717773 304.89111328 C927.98322173 306.35378708 929.61076361 307.81479786 931.23999023 309.27392578 C936.48789561 313.97923674 941.68798008 318.73261395 946.85253906 323.52905273 C949.18500218 325.69114853 951.52034975 327.84359225 953.90917969 329.94360352 C961.53644321 336.67448182 968.70706479 343.83922792 975.88720703 351.04077148 C978.03557765 353.19451975 980.18926592 355.3428468 982.34350586 357.49072266 C983.73380067 358.88167807 985.12378534 360.27294356 986.51342773 361.66455078 C987.14588913 362.29498795 987.77835052 362.92542511 988.42997742 363.57496643 C992.18749995 367.35197428 995.76248047 371.24029243 999.23704529 375.2794342 C1001.97938338 378.43360821 1004.8552137 381.46223262 1007.72045898 384.50439453 C1012.39548238 389.48985426 1017.02174131 394.50982807 1021.57202148 399.60986328 C1023.2809144 401.50373945 1025.00286907 403.37874565 1026.74389648 405.24267578 C1032.20873567 411.09513526 1037.48740173 417.00467824 1042.50170898 423.25439453 C1044.71717871 425.97203739 1046.98893828 428.62607455 1049.28759766 431.27294922 C1054.35577881 437.10918102 1059.12371304 443.04101336 1063.70483398 449.27001953 C1065.82558778 452.10285125 1068.02858149 454.8395707 1070.28295898 457.56689453 C1074.82191737 463.06390296 1079.18721075 468.68029639 1083.49780273 474.35644531 C1084.41232668 475.55957445 1085.32907019 476.76101905 1086.24780273 477.9609375 C1094.51047039 488.75670618 1102.26986072 499.84281677 1109.84545898 511.12939453 C1110.54509766 512.1712793 1111.24473633 513.21316406 1111.96557617 514.28662109 C1117.28583486 522.21635945 1122.57502948 530.166463 1127.84545898 538.12939453 C1128.75908203 539.50925537 1128.75908203 539.50925537 1129.69116211 540.91699219 C1142.71540871 560.63653893 1154.86588642 580.82952445 1166.36547852 601.47363281 C1167.74794326 603.95440673 1169.13734165 606.43114329 1170.52905273 608.90673828 C1178.68614319 623.4504366 1186.53560829 638.11572198 1193.59619141 653.22607422 C1195.89005311 658.13405932 1198.26467467 662.98820318 1200.72045898 667.81689453 C1211.93441983 690.02791721 1221.68921798 713.00375708 1230.84545898 736.12939453 C1231.20502686 737.03383301 1231.56459473 737.93827148 1231.93505859 738.87011719 C1240.33664437 760.04029677 1240.33664437 760.04029677 1242.99389648 768.62939453 C1243.84182178 771.23613914 1243.84182178 771.23613914 1245.14624023 774.08642578 C1247.66327806 779.86346371 1249.61150652 785.86151386 1251.65795898 791.81689453 C1251.87988922 792.46111359 1252.10181946 793.10533264 1252.33047485 793.76907349 C1255.57981979 803.21508164 1258.61528759 812.70320814 1261.41186523 822.29345703 C1262.99672775 827.7090564 1264.73672517 833.07249845 1266.47045898 838.44189453 C1269.20495916 846.94659712 1271.63693121 855.4715509 1273.84545898 864.12939453 C1274.36116671 866.08908388 1274.88163018 868.04753102 1275.40795898 870.00439453 C1275.71926758 871.17615234 1275.71926758 871.17615234 1276.03686523 872.37158203 C1276.69985345 874.6327882 1277.43665199 876.82817802 1278.21264648 879.05126953 C1280.35620671 885.42844379 1281.85008056 891.96465541 1283.40795898 898.50439453 C1283.7115332 899.75478516 1284.01510742 901.00517578 1284.32788086 902.29345703 C1285.86368552 908.69097014 1287.24700399 915.07360035 1288.37353516 921.55517578 C1289.16755769 925.88635718 1290.20805486 930.15758074 1291.22045898 934.44189453 C1294.94841502 950.60234941 1297.85399532 966.80752796 1299.80688477 983.27954102 C1300.29553656 987.32602942 1300.83199717 991.27115397 1301.80639648 995.23095703 C1303.49017379 1002.4311322 1304.05997745 1009.85058691 1304.84545898 1017.19189453 C1304.97568954 1018.38966522 1304.97568954 1018.38966522 1305.10855103 1019.6116333 C1306.17269689 1029.40069876 1307.19360091 1039.19313796 1308.03295898 1049.00439453 C1308.10450195 1049.82431885 1308.17604492 1050.64424316 1308.24975586 1051.48901367 C1308.48071171 1054.36783357 1308.66928693 1057.24665568 1308.84545898 1060.12939453 C1308.88716217 1060.80437988 1308.92886536 1061.47936523 1308.97183228 1062.17480469 C1309.98818457 1079.29173497 1310.09833436 1096.42064739 1310.140625 1113.56201172 C1310.14952838 1116.78095152 1310.17055499 1119.99946584 1310.20214844 1123.21826172 C1310.52708548 1157.09524592 1310.52708548 1157.09524592 1305.84545898 1172.12939453 C1305.26700013 1174.21606118 1304.7020562 1176.30606644 1304.13858032 1178.39682007 C1297.27547067 1202.65968853 1279.36773175 1226.11272396 1257.84545898 1239.12939453 C1256.92635742 1239.71978516 1256.00725586 1240.31017578 1255.06030273 1240.91845703 C1247.6568357 1245.50294914 1240.10264861 1248.4398532 1231.84545898 1251.12939453 C1231.02045898 1251.42716797 1230.19545898 1251.72494141 1229.34545898 1252.03173828 C1211.08064171 1258.58750305 1190.13386534 1258.20567287 1171.84545898 1252.12939453 C1170.04915039 1251.56865234 1170.04915039 1251.56865234 1168.21655273 1250.99658203 C1155.549657 1246.79745743 1144.99687353 1240.72911956 1134.84545898 1232.12939453 C1134.09393555 1231.59830078 1133.34241211 1231.06720703 1132.56811523 1230.52001953 C1131.99963867 1230.06111328 1131.43116211 1229.60220703 1130.84545898 1229.12939453 C1130.84545898 1228.46939453 1130.84545898 1227.80939453 1130.84545898 1227.12939453 C1130.22670898 1226.88189453 1129.60795898 1226.63439453 1128.97045898 1226.37939453 C1126.49477212 1224.92310814 1125.89420896 1223.75126947 1124.84545898 1221.12939453 C1124.18545898 1221.12939453 1123.52545898 1221.12939453 1122.84545898 1221.12939453 C1121.22493135 1219.31281062 1119.74777654 1217.50443982 1118.28295898 1215.56689453 C1117.84040771 1214.98262695 1117.39785645 1214.39835937 1116.94189453 1213.79638672 C1103.3438535 1195.50410126 1096.08408519 1176.45955384 1091.84545898 1154.12939453 C1091.6667627 1153.22745361 1091.48806641 1152.3255127 1091.30395508 1151.39624023 C1090.72526829 1147.27301983 1090.63264321 1143.21788247 1090.56420898 1139.05908203 C1090.54579956 1138.1827713 1090.52739014 1137.30646057 1090.50842285 1136.40359497 C1090.44998851 1133.60392644 1090.3972086 1130.80419401 1090.34545898 1128.00439453 C1089.91031891 1105.08837287 1088.67544008 1082.54009012 1086.09545898 1059.75439453 C1085.96229279 1058.56518402 1085.82912659 1057.37597351 1085.69192505 1056.15072632 C1083.77633957 1039.1195652 1081.60938376 1022.21407666 1078.44995117 1005.36376953 C1077.82277521 1002.00802349 1077.22632887 998.64779661 1076.63452148 995.28564453 C1073.81944902 979.46295703 1070.46647119 963.78562999 1066.84545898 948.12939453 C1066.48000977 946.53200439 1066.48000977 946.53200439 1066.10717773 944.90234375 C1062.80030824 930.49226205 1059.03411194 916.27871866 1054.7487793 902.12890625 C1053.8659659 899.19748858 1053.00630973 896.26009708 1052.15014648 893.32080078 C1042.08520884 859.19541769 1029.23121565 826.19220762 1014.85083008 793.67773438 C1013.12015049 789.76264851 1011.42373846 785.83441338 1009.73999023 781.89892578 C997.97804833 754.59967961 984.64272051 727.6779057 969.56469727 702.05419922 C967.93446162 699.2808077 966.31817216 696.49983113 964.70573425 693.71607971 C962.84024389 690.49700453 960.9680549 687.2818398 959.09545898 684.06689453 C958.57503525 683.17183701 958.57503525 683.17183701 958.0440979 682.25869751 C952.87965738 673.39116641 947.46444028 664.71567629 941.84545898 656.12939453 C941.18513672 655.1193335 940.52481445 654.10927246 939.84448242 653.06860352 C931.1614192 639.85308723 922.26256091 626.83286058 912.84545898 614.12939453 C912.09619141 613.1178833 912.09619141 613.1178833 911.33178711 612.0859375 C887.19261397 579.42582898 887.19261397 579.42582898 860.96264648 548.46142578 C859.06494729 546.37115564 857.19812484 544.25953338 855.34545898 542.12939453 C849.40865252 535.32880329 843.46420493 528.57947396 836.96264648 522.30908203 C835.12328037 520.41541729 833.40930202 518.47859466 831.68945312 516.4777832 C828.02399486 512.27831213 824.1707848 508.30981528 820.22436523 504.37548828 C819.52077377 503.67094009 818.81718231 502.96639191 818.0922699 502.24049377 C816.6153125 500.76286086 815.13711156 499.28646997 813.65771484 497.8112793 C811.41380814 495.57272972 809.17529194 493.3288898 806.93725586 491.08447266 C805.4916128 489.63949049 804.04565953 488.19481861 802.59936523 486.75048828 C801.94078018 486.089879 801.28219513 485.42926971 800.60365295 484.74864197 C796.72854604 480.89269617 792.74587783 477.21647697 788.60324097 473.64906311 C786.15344403 471.53112159 783.78459674 469.32877924 781.40795898 467.12939453 C777.43214436 463.49858861 773.36000883 460.14119556 769.07202148 456.89111328 C766.66344726 454.98538174 764.41787552 452.95895942 762.15795898 450.87939453 C757.63539688 446.75009869 752.91560286 442.96175466 748.08007812 439.21191406 C744.52717816 436.45648645 741.04105987 433.64425334 737.59545898 430.75439453 C730.72203134 425.09866051 723.45412607 419.99169985 716.21264648 414.82324219 C713.14211401 412.62611406 710.08530616 410.4103454 707.02856445 408.1940918 C693.52709367 398.41073642 679.97156581 388.72270756 666.03198242 379.57080078 C663.54886513 377.93387308 661.07652258 376.2811888 658.60327148 374.62939453 C639.98371116 362.26021665 620.61375499 351.5463613 600.91137695 341.01464844 C595.43237791 338.08267919 590.00890369 335.10088599 584.65795898 331.94189453 C576.05418619 326.97129385 567.04031103 322.83654672 558.04516602 318.62988281 C554.82543206 317.120003 551.61445231 315.59260096 548.40405273 314.06298828 C506.82627538 294.36953463 463.7902343 277.14593916 419.4309082 264.8515625 C415.90610534 263.86701417 412.39125523 262.84901738 408.87548828 261.83276367 C382.88498042 254.33554775 356.69030137 248.14091225 330.17211914 242.80517578 C327.35459897 242.23282176 324.54290835 241.64017604 321.73217773 241.03564453 C304.15020911 237.34942601 286.23139033 235.52196116 268.40545654 233.43011475 C265.92380037 233.13859721 263.44246668 232.84446238 260.96118164 232.54980469 C219.31677093 227.62217589 177.90561483 226.00126177 135.99619484 225.89959908 C129.55006539 225.88387219 123.10398101 225.85993586 116.65788269 225.83470154 C98.35088971 225.76419045 80.04387393 225.70361757 61.73681641 225.65258789 C51.57526748 225.62419225 41.4137665 225.58878461 31.25226802 225.54593414 C24.85992389 225.51938323 18.46763359 225.50134583 12.0752455 225.48989689 C8.09091052 225.48070214 4.10664109 225.46331227 0.12234497 225.44371796 C-1.70764944 225.43631639 -3.53766073 225.43216593 -5.36767006 225.43172264 C-42.57330381 225.41544646 -73.49261156 215.94788798 -100.71704102 189.94189453 C-115.65185595 174.62468035 -125.48148995 155.65193066 -131.15454102 135.12939453 C-131.44820557 134.11026978 -131.44820557 134.11026978 -131.74780273 133.07055664 C-133.49481364 126.31230145 -133.45056731 119.63802962 -133.40454102 112.69189453 C-133.41227539 111.52851562 -133.42000977 110.36513672 -133.42797852 109.16650391 C-133.41238363 102.23847543 -132.86531461 95.84491828 -131.15454102 89.12939453 C-130.98825195 88.46464111 -130.82196289 87.7998877 -130.65063477 87.11499023 C-124.182114 62.72954448 -110.37723777 40.35354336 -90.15454102 25.12939453 C-89.30375977 24.45263672 -88.45297852 23.77587891 -87.57641602 23.07861328 C-61.71250246 3.13862005 -31.53423566 -0.03572503 0 0 Z " fill="#FEFEFE" transform="translate(1924.154541015625,877.87060546875)"/>
<path d="M0 0 C28.23424518 -0.81469418 54.93280013 5.96360386 76.49267578 25.078125 C77.43820312 25.84576172 77.43820312 25.84576172 78.40283203 26.62890625 C100.25567578 44.44737884 113.08789865 73.35881937 116.29638672 100.94921875 C119.70082834 137.87301344 104.60130168 172.82166163 90.49267578 206.078125 C90.07840332 207.05620117 89.66413086 208.03427734 89.23730469 209.04199219 C84.84800539 219.36525128 80.38619072 229.60181555 75.25830078 239.58203125 C73.54477192 242.97497004 71.92022438 246.39731456 70.3125 249.84106445 C65.79271928 259.51893042 60.9721033 268.99586375 55.921875 278.40673828 C54.3735785 281.3007356 52.84121731 284.20288541 51.30908203 287.10546875 C43.42027084 301.9819348 35.03657239 316.5047109 26.36523438 330.93701172 C24.64931191 333.81537658 22.96364933 336.70820994 21.29345703 339.61328125 C9.22180534 360.55032312 -4.5091258 380.47681362 -18.29052734 400.31689453 C-19.57584857 402.17730932 -20.84750598 404.04651801 -22.11669922 405.91796875 C-34.14180206 423.61698004 -46.96461145 440.7690959 -60.39013672 457.4296875 C-61.96077541 459.39443479 -63.51704704 461.36681543 -65.06201172 463.3515625 C-72.31151887 472.66177066 -79.85789121 481.67162534 -87.55029297 490.6171875 C-88.05866699 491.20870605 -88.56704102 491.80022461 -89.09082031 492.40966797 C-90.11784608 493.60455731 -91.14551484 494.79889429 -92.17382812 495.99267578 C-95.12447866 499.42826014 -97.99487422 502.91266233 -100.81982422 506.453125 C-105.28884202 511.9679093 -110.12614555 517.10635209 -115.01635742 522.24560547 C-118.07423608 525.46190874 -121.07196964 528.70326142 -123.96826172 532.06640625 C-128.24280835 536.9929922 -132.89275878 541.51364703 -137.54638672 546.078125 C-140.75128633 549.24590222 -143.86136258 552.43136416 -146.79248047 555.85546875 C-151.0945482 560.84752525 -155.75605414 565.47677966 -160.42260742 570.1237793 C-161.9422409 571.6380508 -163.45644939 573.1575993 -164.97021484 574.67773438 C-169.79093426 579.50140712 -174.66760727 584.20299645 -179.85131836 588.64038086 C-182.01299215 590.51714585 -184.01462825 592.5241153 -186.00732422 594.578125 C-189.33853229 597.94912565 -192.7584405 601.1232653 -196.35498047 604.20703125 C-198.88784584 606.40892329 -201.35064944 608.68008326 -203.81982422 610.953125 C-208.25632414 615.00013796 -212.8200377 618.82695802 -217.49169922 622.59765625 C-221.05402903 625.52781095 -224.53197548 628.54581557 -228.00732422 631.578125 C-233.18582404 636.09259808 -238.4223707 640.51184211 -243.76513672 644.83203125 C-246.32024854 646.9248935 -248.83192387 649.05902467 -251.33789062 651.20996094 C-256.55373215 655.67981051 -261.84756556 659.88677465 -267.45263672 663.8671875 C-271.24127194 666.60934547 -274.93161747 669.46905754 -278.63232422 672.328125 C-286.39617663 678.30304346 -294.33664511 683.98549204 -302.37353516 689.58544922 C-304.5319851 691.09537633 -306.68109764 692.61772659 -308.82763672 694.14453125 C-309.54886719 694.65685303 -310.27009766 695.1691748 -311.01318359 695.69702148 C-312.34617732 696.64439917 -313.67833274 697.59295861 -315.00927734 698.54321289 C-321.40098533 703.07339305 -327.93659988 707.38820969 -334.46343994 711.71984863 C-336.48653834 713.06431161 -338.50686195 714.41284229 -340.52636719 715.76269531 C-360.15849993 728.87797608 -379.97183542 741.42657141 -400.50732422 753.078125 C-402.11027344 753.99513184 -402.11027344 753.99513184 -403.74560547 754.93066406 C-418.78575179 763.53099434 -434.06622692 771.60369172 -449.47900391 779.51318359 C-452.9266153 781.29480154 -456.35117028 783.11648682 -459.77270508 784.94750977 C-481.53192615 796.56526497 -503.95652293 806.68966766 -526.65893555 816.29425049 C-528.46614776 817.06066267 -530.27094703 817.83275671 -532.07568359 818.60498047 C-560.22185576 830.63797811 -589.05617967 840.61635343 -618.00732422 850.515625 C-618.98489685 850.85074097 -619.96246948 851.18585693 -620.96966553 851.53112793 C-634.06625323 856.0133914 -647.21945069 860.19996301 -660.50732422 864.078125 C-661.55033691 864.38548584 -662.59334961 864.69284668 -663.66796875 865.00952148 C-669.60009778 866.74960517 -675.55058725 868.42444418 -681.50732422 870.078125 C-682.36003906 870.31499023 -683.21275391 870.55185547 -684.09130859 870.79589844 C-701.98358524 875.71796247 -720.09350638 879.67725937 -738.22821045 883.58599854 C-740.43136208 884.06172258 -742.63373014 884.5409223 -744.8359375 885.02099609 C-766.62378383 889.75857917 -788.49905517 893.53213155 -810.55529785 896.78967285 C-812.28276951 897.04494241 -814.00982525 897.3030231 -815.73681641 897.56152344 C-821.0047948 898.34407877 -826.27737542 899.05997308 -831.56298828 899.71289062 C-833.6387175 899.97037743 -835.71351782 900.23540776 -837.78759766 900.50585938 C-848.67420883 901.91077462 -859.58218445 903.02075037 -870.50732422 904.078125 C-871.56973202 904.18156345 -872.63213982 904.28500191 -873.72674179 904.39157486 C-927.96029518 909.60216879 -982.06445913 909.76822542 -1036.50633812 909.55134368 C-1045.95459314 909.51523735 -1055.40273325 909.50546943 -1064.8510499 909.5025658 C-1076.32119149 909.49896238 -1087.7912673 909.48017004 -1099.26138115 909.45544553 C-1102.51302492 909.44926729 -1105.76466371 909.44560108 -1109.01631165 909.44241142 C-1114.10615564 909.43648245 -1119.19586751 909.42009171 -1124.28565598 909.39580727 C-1126.13749037 909.38843013 -1127.98934131 909.38429945 -1129.84119034 909.38382721 C-1163.58953983 909.36688269 -1193.36253713 900.97518716 -1219.50732422 879.078125 C-1220.40451172 878.34722656 -1221.30169922 877.61632813 -1222.22607422 876.86328125 C-1243.52167043 858.76876358 -1257.75956794 830.5241493 -1261.50732422 803.078125 C-1263.84012015 772.71122823 -1255.93498711 745.84360367 -1236.15136719 722.4765625 C-1213.40483482 697.06032744 -1181.6472414 685.13524139 -1148.14589691 683.27784729 C-1139.63056889 682.87194246 -1131.10554827 682.90719155 -1122.58251953 682.88867188 C-1120.52709288 682.88070892 -1118.47166784 682.87231943 -1116.41624451 682.86354065 C-1112.01908092 682.84561119 -1107.62192059 682.83055027 -1103.22473907 682.81776428 C-1096.24271901 682.7973372 -1089.26073817 682.76971029 -1082.27874756 682.74108887 C-1067.43829175 682.68125413 -1052.59781177 682.62936876 -1037.75732422 682.578125 C-1021.76989839 682.5228081 -1005.78248468 682.46590361 -989.79509616 682.40057611 C-984.00522068 682.37713435 -978.21535127 682.35554264 -972.42545319 682.33848572 C-930.09401536 682.5379765 -930.09401536 682.5379765 -887.88232422 679.828125 C-886.64272949 679.70171631 -885.40313477 679.57530762 -884.12597656 679.44506836 C-879.9173922 679.01039853 -875.71220089 678.54716147 -871.50732422 678.078125 C-870.68997803 677.98726624 -869.87263184 677.89640747 -869.03051758 677.80279541 C-835.02069696 674.00921956 -801.84345902 668.82225981 -768.50732422 661.078125 C-766.7185083 660.66361084 -766.7185083 660.66361084 -764.89355469 660.24072266 C-732.3158332 652.65003151 -700.14941609 643.94762876 -668.50732422 633.078125 C-667.60433594 632.76842773 -666.70134766 632.45873047 -665.77099609 632.13964844 C-644.7375072 625.0311307 -644.7375072 625.0311307 -624.32763672 616.3515625 C-621.9093813 615.25966324 -619.48693785 614.26844782 -617.01904297 613.296875 C-610.66537216 610.77589479 -604.43483708 607.99129057 -598.19482422 605.203125 C-597.06109375 604.69910156 -595.92736328 604.19507812 -594.75927734 603.67578125 C-579.20489773 596.75056343 -579.20489773 596.75056343 -563.92138672 589.25390625 C-562.15574764 588.39394288 -560.35347883 587.608096 -558.53466797 586.8671875 C-552.64099795 584.36648373 -547.07136139 581.18210074 -541.44482422 578.140625 C-540.19612299 577.46787265 -538.94734273 576.79526698 -537.69848633 576.12280273 C-535.17368054 574.76232514 -532.65008135 573.39964542 -530.12744141 572.03515625 C-526.83226632 570.25282461 -523.53319573 568.47779363 -520.23388672 566.703125 C-511.59228126 562.0402359 -503.02457727 557.33981683 -494.71826172 552.09765625 C-492.38246191 550.62854615 -490.04006922 549.19121301 -487.67138672 547.77734375 C-478.10970938 542.05212815 -468.77469223 536.01512917 -459.50732422 529.828125 C-458.93496033 529.44626038 -458.36259644 529.06439575 -457.77288818 528.67095947 C-439.19612624 516.26221351 -421.10324535 503.21477822 -403.42675781 489.55664062 C-401.6743789 488.20680512 -399.91525872 486.86663248 -398.15185547 485.53125 C-390.44331995 479.67084784 -382.95785374 473.57023732 -375.50732422 467.38671875 C-372.32705012 464.74765703 -369.11082515 462.15804316 -365.88232422 459.578125 C-360.69909373 455.35240732 -355.83526046 450.81061363 -350.98339844 446.21289062 C-347.23811148 442.66568638 -343.41656468 439.23376771 -339.52270508 435.85058594 C-336.15976922 432.89299486 -332.89481353 429.83314164 -329.63232422 426.765625 C-328.93905029 426.11480957 -328.24577637 425.46399414 -327.53149414 424.79345703 C-322.08133348 419.65844818 -316.75854366 414.41670299 -311.50732422 409.078125 C-310.67716797 408.25570312 -309.84701172 407.43328125 -308.99169922 406.5859375 C-306.73276527 404.30569285 -304.57652368 401.97680031 -302.44482422 399.578125 C-298.87450954 395.58742501 -295.26868638 391.63345858 -291.63232422 387.703125 C-290.60756946 386.59506612 -289.58282992 385.48699316 -288.55810547 384.37890625 C-287.79747803 383.55640381 -287.79747803 383.55640381 -287.02148438 382.71728516 C-282.8347527 378.18492197 -278.66812096 373.63429157 -274.50732422 369.078125 C-273.72486328 368.22476563 -272.94240234 367.37140625 -272.13623047 366.4921875 C-267.55397663 361.45726734 -263.17971487 356.29622848 -258.89794922 351.00390625 C-256.26705383 347.7840686 -253.57922941 344.61757949 -250.88232422 341.453125 C-242.35903314 331.40574407 -234.67996979 320.84019444 -226.99658203 310.14599609 C-225.15829677 307.5934918 -223.30280004 305.05382209 -221.44482422 302.515625 C-216.0446428 295.09892014 -210.77647728 287.58818223 -205.50732422 280.078125 C-204.8619873 279.15966797 -204.8619873 279.15966797 -204.20361328 278.22265625 C-199.75262544 271.87937494 -195.41216161 265.48316062 -191.29150391 258.91894531 C-187.35397033 252.6494953 -183.38411415 246.4016286 -179.32373047 240.2109375 C-164.04285151 216.78695858 -151.19785629 191.97326494 -138.50732422 167.078125 C-137.97091309 166.03253418 -137.43450195 164.98694336 -136.88183594 163.90966797 C-127.19023252 144.99756017 -118.79609706 125.75711333 -111.21240234 105.9140625 C-110.01398338 102.7935256 -108.76927959 99.69222062 -107.51513672 96.59375 C-106.74541102 94.67241917 -105.99344831 92.7439627 -105.24951172 90.8125 C-91.66550124 55.92460424 -70.93961171 23.713835 -35.76123047 7.7097168 C-23.81111044 2.48967231 -12.97010981 0.40413195 0 0 Z " fill="#FEFEFE" transform="translate(3052.50732421875,2314.921875)"/>
<path d="M0 0 C0.06875177 52.74884599 0.12157222 105.49768743 0.15319599 158.24656946 C0.15694785 164.48208805 0.16083085 170.71760655 0.16479492 176.953125 C0.16558185 178.19444053 0.16636878 179.43575606 0.16717956 180.71468721 C0.18021328 200.78163645 0.20385587 220.84855974 0.23145839 240.91549362 C0.25956928 261.5247644 0.27618825 282.13402165 0.28226548 302.74331081 C0.28637015 315.4477847 0.29930772 328.15218526 0.3237494 340.85663657 C0.33967683 349.5830233 0.34438459 358.30937244 0.34050413 367.03577264 C0.33859344 372.06120955 0.34140397 377.08651886 0.35761642 382.11193275 C0.47772462 421.26021634 0.47772462 421.26021634 -3 439 C-3.30327823 440.60531428 -3.30327823 440.60531428 -3.6126833 442.24305916 C-7.47057085 460.65037992 -19.42272226 476.63952182 -32 490 C-32.53882813 490.60328125 -33.07765625 491.2065625 -33.6328125 491.828125 C-46.88251888 506.07655297 -65.58738004 514.73925144 -84 520 C-85.57007813 520.47953125 -85.57007813 520.47953125 -87.171875 520.96875 C-113.89739861 528.00864402 -143.26969152 521.7359505 -166.92578125 508.4453125 C-194.38027501 492.35462536 -212.45866272 466.16520276 -220.609375 435.72412109 C-221.91539607 430.51437658 -223.04553302 425.28481717 -224 420 C-224.1679627 419.11770155 -224.33592541 418.2354031 -224.50897789 417.32636833 C-226.48750844 405.54454482 -226.32673316 393.77840006 -226.35400391 381.86376953 C-226.36655497 379.4412142 -226.37985045 377.01866263 -226.39382935 374.59611511 C-226.43200781 367.37310373 -226.45342742 360.15010312 -226.47128493 352.9270218 C-226.47832182 350.20136009 -226.48661183 347.47570287 -226.49496425 344.75004492 C-226.53183133 332.71679783 -226.56334062 320.68355047 -226.57876015 308.6502552 C-226.58257901 305.71800862 -226.58641987 302.78576208 -226.59033203 299.85351562 C-226.59129951 299.12484928 -226.59226699 298.39618294 -226.59326379 297.6454358 C-226.6099017 285.81456112 -226.66066693 273.9840883 -226.72549339 262.15338947 C-226.79164851 249.98040603 -226.82765717 237.80762732 -226.83404863 225.63446319 C-226.83837317 218.80982676 -226.85578989 211.98578023 -226.90697098 205.16131973 C-226.95494411 198.75064333 -226.96202924 192.34074104 -226.94144821 185.92991066 C-226.94045592 183.57888951 -226.95314373 181.22781653 -226.9805603 178.87695503 C-227.01592431 175.66499465 -227.00183456 172.45686604 -226.97549438 169.24490356 C-226.99743288 168.31669174 -227.01937137 167.38847992 -227.04197466 166.43214047 C-226.93518528 161.03291021 -225.9502783 158.39321525 -222.1096859 154.50739861 C-220.76231169 153.3123808 -219.39432294 152.13988962 -218 151 C-217.09894531 150.22011719 -216.19789062 149.44023438 -215.26953125 148.63671875 C-214.45871094 147.99347656 -213.64789062 147.35023438 -212.8125 146.6875 C-208.76136653 143.43212489 -204.76580376 140.12305786 -200.8125 136.75 C-178.56493835 117.8320054 -155.21593894 100.35139259 -131.421875 83.4375 C-129.2374486 81.88456695 -127.06204635 80.32127977 -124.890625 78.75 C-109.21142401 67.43038172 -93.10305978 56.70399313 -77 46 C-75.91960449 45.2795752 -74.83920898 44.55915039 -73.72607422 43.81689453 C-60.22222416 34.81937803 -46.67790711 26.01558442 -32.58422852 17.95800781 C-24.75798696 13.48207501 -17.09981495 8.77128044 -9.5078125 3.90869141 C-8.69441406 3.39483887 -7.88101562 2.88098633 -7.04296875 2.3515625 C-6.33164795 1.89604004 -5.62032715 1.44051758 -4.88745117 0.97119141 C-3 0 -3 0 0 0 Z " fill="#FEFEFE" transform="translate(1547,986)"/>
<path d="M0 0 C0.33 0 0.66 0 1 0 C1.16849602 63.29948113 1.3320117 126.59897463 1.49095565 189.89848047 C1.49997313 193.48930158 1.50899941 197.08012266 1.51802588 200.67094374 C2.06550413 418.59000047 2.06550413 418.59000047 2.0625 542.8125 C2.06207577 543.87982487 2.06165154 544.94714973 2.06121445 546.04681778 C2.05109793 571.03122301 2.03331584 596.01561433 2 621 C1.67 621 1.34 621 1 621 C0.98969254 620.34346939 0.97938507 619.68693878 0.96876526 619.01051331 C0.86018521 612.14794994 0.74563251 605.28550433 0.62768555 598.4230957 C0.58450101 595.86550369 0.54281505 593.30788591 0.50268555 590.75024414 C0.44458183 587.06388599 0.3810048 583.37765562 0.31640625 579.69140625 C0.29969376 578.55667374 0.28298126 577.42194122 0.26576233 576.25282288 C0.24581711 575.17238205 0.22587189 574.09194122 0.20532227 572.97875977 C0.18977798 572.03944107 0.1742337 571.10012238 0.15821838 570.13233948 C0.03488331 567.69060472 -0.19497382 565.35641451 -0.5022974 562.93682671 C-1.06850521 557.90512395 -1.13717324 552.93761693 -1.12145996 547.87843323 C-1.12239639 546.88761059 -1.12333282 545.89678795 -1.12429762 544.87594038 C-1.12613453 541.53519455 -1.12069579 538.1945011 -1.11523438 534.85375977 C-1.11482416 532.40303742 -1.11481187 529.95231499 -1.11515808 527.50159264 C-1.11467875 521.39302422 -1.10917437 515.2844778 -1.1014173 509.17591573 C-1.095003 504.0286042 -1.09088411 498.88129491 -1.08811951 493.73398018 C-1.03862408 403.69801662 -0.78243509 313.66211969 -0.55461884 223.62647402 C-0.51139495 206.53264144 -0.46904199 189.43880684 -0.42724609 172.3449707 C-0.4242591 171.12343868 -0.4212721 169.90190666 -0.41819459 168.64335852 C-0.40319902 162.50914147 -0.38821727 156.37492438 -0.37324238 150.24070728 C-0.25096857 100.16046612 -0.12633292 50.08023107 0 0 Z " fill="#44383C" transform="translate(1320,1987)"/>
<path d="M0 0 C0.33 0.99 0.66 1.98 1 3 C-8.57 12.57 -18.14 22.14 -28 32 C-28.66 31.67 -29.32 31.34 -30 31 C-29.3702124 30.37544922 -28.7404248 29.75089844 -28.09155273 29.10742188 C-25.72064355 26.75371686 -23.352126 24.39765427 -20.98510742 22.04003906 C-19.96682708 21.02673848 -18.94764526 20.01434288 -17.92749023 19.00292969 C-12.06032147 13.184726 -6.3551361 7.30041087 -1 1 C-0.67 0.67 -0.34 0.34 0 0 Z " fill="#222123" transform="translate(2915,2860)"/>
<path d="M0 0 C0.33 0.66 0.66 1.32 1 2 C-1.04497388 7.172581 -4.29931105 10.9519972 -8 15 C-8.66 14.67 -9.32 14.34 -10 14 C-6.7 9.38 -3.4 4.76 0 0 Z " fill="#262325" transform="translate(3028,2723)"/>
<path d="M0 0 C0.66 0.33 1.32 0.66 2 1 C0.68334336 2.67987227 -0.65263027 4.34466005 -2 6 C-2.45375 6.5775 -2.9075 7.155 -3.375 7.75 C-5.74052662 9.56963586 -8.08651035 9.67627893 -11 10 C-7.50640535 6.40365256 -3.88901869 3.16548033 0 0 Z " fill="#2E2E30" transform="translate(2567,2645)"/>
<path d="M0 0 C0.66 0.33 1.32 0.66 2 1 C1.2884375 1.6496875 1.2884375 1.6496875 0.5625 2.3125 C-1.23686957 4.02309613 -1.23686957 4.02309613 -2 7 C-5.5625 8.1875 -5.5625 8.1875 -9 9 C-6 6 -3 3 0 0 Z " fill="#252426" transform="translate(2827,2943)"/>
<path d="M0 0 C0 4.38968456 -2.12805101 5.76905739 -5 9 C-5.99 8.34 -6.98 7.68 -8 7 C-5.36 4.69 -2.72 2.38 0 0 Z " fill="#2D2C2D" transform="translate(2610,2609)"/>
<path d="M0 0 C1.32 0.33 2.64 0.66 4 1 C3.67 2.32 3.34 3.64 3 5 C0.525 4.01 0.525 4.01 -2 3 C-1.34 2.01 -0.68 1.02 0 0 Z " fill="#181619" transform="translate(2583,1465)"/>
<path d="M0 0 C2.64 1.98 5.28 3.96 8 6 C6.68 6.33 5.36 6.66 4 7 C1.75 5.25 1.75 5.25 0 3 C0 2.01 0 1.02 0 0 Z " fill="#111011" transform="translate(2688,1330)"/>
<path d="M0 0 C0.33 0.99 0.66 1.98 1 3 C-0.28965176 4.37562854 -1.62689293 5.70766393 -3 7 C-3.66 7 -4.32 7 -5 7 C-3.70700306 4.11562221 -2.34058637 2.12780579 0 0 Z " fill="#373636" transform="translate(2649,2569)"/>
</svg>
